<?xml version="1.0" encoding="UTF-8"?>
<svg xmlns="http://www.w3.org/2000/svg" width="512" height="512" viewBox="0 0 512 512">
  <defs>
    <linearGradient id="g" x1="0" x2="1" y1="0" y2="1">
      <stop offset="0" stop-color="#1db954"/>
      <stop offset="1" stop-color="#0e7a34"/>
    </linearGradient>
    <filter id="s" x="-20%" y="-20%" width="140%" height="140%">
      <feDropShadow dx="0" dy="6" stdDeviation="14" flood-color="#000" flood-opacity="0.25"/>
    </filter>
  </defs>

  <!-- Background circle -->
  <circle cx="256" cy="256" r="232" fill="#111" filter="url(#s)"/>

  <!-- Vinyl record rings -->
  <circle cx="256" cy="256" r="170" fill="none" stroke="#2a2a2a" stroke-width="8"/>
  <circle cx="256" cy="256" r="135" fill="none" stroke="#2f2f2f" stroke-width="6"/>
  <circle cx="256" cy="256" r="100" fill="none" stroke="#343434" stroke-width="6"/>

  <!-- Center label -->
  <circle cx="256" cy="256" r="34" fill="url(#g)"/>
  <circle cx="256" cy="256" r="10" fill="#111"/>

  <!-- Play triangle -->
  <path d="M 290 256 L 236 224 L 236 288 Z" fill="#e9ffe9" opacity="0.9"/>

  <!-- Narration speech bubble (to hint at AI documentary) -->
  <g transform="translate(330,170) scale(0.9)">
    <path d="M20 20 h120 a16 16 0 0 1 16 16 v60 a16 16 0 0 1 -16 16 H74 l-24 22 a6 6 0 0 1 -10 -4 v-18 H20 a16 16 0 0 1 -16 -16 V36 a16 16 0 0 1 16 -16 z" fill="#1db954" opacity="0.85"/>
    <rect x="36" y="42" width="88" height="8" rx="4" fill="#0b3019"/>
    <rect x="36" y="60" width="72" height="8" rx="4" fill="#0b3019"/>
    <rect x="36" y="78" width="58" height="8" rx="4" fill="#0b3019"/>
  </g>

  <!-- Subtle outer ring -->
  <circle cx="256" cy="256" r="238" fill="none" stroke="#1a1a1a" stroke-width="12"/>
</svg>
